o Box.001
v 0.03584159165620804 0.025192072615027428 0.0022908297833055258
v 0.03584159165620804 0.025192072615027428 0.0002908298629336059
v -0.03575779125094414 0.025192072615027428 0.0002908298629336059
v -0.03575779125094414 0.025192072615027428 0.0022908297833055258
v -0.03749195858836174 0.02496376633644104 0.0002908298629336059
v -0.03749195858836174 0.02496376633644104 0.0022908297833055258
v -0.03910794481635094 0.024294402450323105 0.0002908298629336059
v -0.03910794481635094 0.024294402450323105 0.0022908297833055258
v -0.0404956229031086 0.02322959713637829 0.0002908298629336059
v -0.0404956229031086 0.02322959713637829 0.0022908297833055258
v -0.04156043007969856 0.02184191904962063 0.0002908298629336059
v -0.04156043007969856 0.02184191904962063 0.0022908297833055258
v -0.0422297939658165 0.020225930958986282 0.0002908298629336059
v -0.0422297939658165 0.020225930958986282 0.0022908297833055258
v -0.042458098381757736 0.01849176362156868 0.0002908298629336059
v -0.042458098381757736 0.01849176362156868 0.0022908297833055258
v -0.042458098381757736 -0.018107619136571884 0.0002908298629336059
v -0.042458098381757736 -0.018107619136571884 0.0022908297833055258
v -0.0422297939658165 -0.019841786473989487 0.0002908298629336059
v -0.0422297939658165 -0.019841786473989487 0.0022908297833055258
v -0.04156043007969856 -0.021457772701978683 0.0002908298629336059
v -0.04156043007969856 -0.021457772701978683 0.0022908297833055258
v -0.0404956229031086 -0.022845452651381493 0.0002908298629336059
v -0.0404956229031086 -0.022845452651381493 0.0022908297833055258
v -0.03910794481635094 -0.02391025610268116 0.0002908298629336059
v -0.03910794481635094 -0.02391025610268116 0.0022908297833055258
v -0.03749195858836174 -0.024579619988799095 0.0002908298629336059
v -0.03749195858836174 -0.024579619988799095 0.0022908297833055258
v -0.03575779125094414 -0.024807926267385483 0.0002908298629336059
v -0.03575779125094414 -0.024807926267385483 0.0022908297833055258
v 0.03584159165620804 -0.024807926267385483 0.0002908298629336059
v 0.03584159165620804 -0.024807926267385483 0.0022908297833055258
v 0.04254189878702164 0.01849176362156868 0.0022908297833055258
v 0.0423135943710804 0.020225930958986282 0.0022908297833055258
v 0.03919174522161484 -0.02391025610268116 0.0022908297833055258
v 0.040579427033662796 -0.022845452651381493 0.0022908297833055258
v 0.04164423048496246 -0.021457772701978683 0.0022908297833055258
v 0.040579427033662796 0.02322959713637829 0.0022908297833055258
v 0.03919174522161484 0.024294402450323105 0.0022908297833055258
v 0.03757575899362564 0.02496376633644104 0.0022908297833055258
v 0.04164423048496246 0.02184191904962063 0.0022908297833055258
v 0.0423135943710804 -0.019841786473989487 0.0022908297833055258
v 0.04254189878702164 -0.018107619136571884 0.0022908297833055258
v 0.03757575899362564 -0.024579619988799095 0.0022908297833055258
v 0.03919174522161484 -0.02391025610268116 0.0002908298629336059
v 0.0423135943710804 -0.019841786473989487 0.0002908298629336059
v 0.04164423048496246 -0.021457772701978683 0.0002908298629336059
v 0.04254189878702164 0.01849176362156868 0.0002908298629336059
v 0.03757575899362564 0.02496376633644104 0.0002908298629336059
v 0.03919174522161484 0.024294402450323105 0.0002908298629336059
v 0.04254189878702164 -0.018107619136571884 0.0002908298629336059
v 0.03757575899362564 -0.024579619988799095 0.0002908298629336059
v 0.040579427033662796 0.02322959713637829 0.0002908298629336059
v 0.04164423048496246 0.02184191904962063 0.0002908298629336059
v 0.040579427033662796 -0.022845452651381493 0.0002908298629336059
v 0.0423135943710804 0.020225930958986282 0.0002908298629336059
vn 0 1 0
vn 0 1 0
vn 0 1 0
vn 0 1 0
vn -0.258819043636322 0.9659258127212524 0
vn -0.258819043636322 0.9659258127212524 0
vn -0.5 0.8660253882408142 0
vn -0.5 0.8660253882408142 0
vn -0.7071067690849304 0.7071067690849304 0
vn -0.7071067690849304 0.7071067690849304 0
vn -0.8660253882408142 0.5 0
vn -0.8660253882408142 0.5 0
vn -0.9659258127212524 0.258819043636322 0
vn -0.9659258127212524 0.258819043636322 0
vn -1 1.2246468525851679e-16 0
vn -1 1.2246468525851679e-16 0
vn -1 1.2246468525851679e-16 0
vn -1 1.2246468525851679e-16 0
vn -0.9659258127212524 -0.258819043636322 0
vn -0.9659258127212524 -0.258819043636322 0
vn -0.8660253882408142 -0.5 0
vn -0.8660253882408142 -0.5 0
vn -0.7071067690849304 -0.7071067690849304 0
vn -0.7071067690849304 -0.7071067690849304 0
vn -0.5 -0.8660253882408142 0
vn -0.5 -0.8660253882408142 0
vn -0.258819043636322 -0.9659258127212524 0
vn -0.258819043636322 -0.9659258127212524 0
vn -1.8369701465288538e-16 -1 0
vn -1.8369701465288538e-16 -1 0
vn -1.8369701465288538e-16 -1 0
vn -1.8369701465288538e-16 -1 0
vn 0 0 1
vn 0 0 1
vn 0 0 1
vn 0 0 1
vn 0 0 1
vn 0 0 1
vn 0 0 1
vn 0 0 1
vn 0 0 1
vn 0 0 1
vn 0 0 1
vn 0 0 1
vn 0 0 1
vn 0 0 1
vn 0 0 1
vn 0 0 1
vn 0 0 1
vn 0 0 1
vn 0 0 1
vn 0 0 1
vn 0 0 1
vn 0 0 1
vn 0 0 1
vn 0 0 1
vn 0 0 1
vn 0 0 1
vn 0 0 1
vn 0 0 1
vn 0 0 -1
vn 0 0 -1
vn 0 0 -1
vn 0 0 -1
vn 0 0 -1
vn 0 0 -1
vn 0 0 -1
vn 0 0 -1
vn 0 0 -1
vn 0 0 -1
vn 0 0 -1
vn 0 0 -1
vn 0 0 -1
vn 0 0 -1
vn 0 0 -1
vn 0 0 -1
vn 0 0 -1
vn 0 0 -1
vn 0 0 -1
vn 0 0 -1
vn 0 0 -1
vn 0 0 -1
vn 0 0 -1
vn 0 0 -1
vn 0 0 -1
vn 0 0 -1
vn 0 0 -1
vn 0 0 -1
vn 1 0 0
vn 1 0 0
vn 1 0 0
vn 1 0 0
vn -1.8369701465288538e-16 -1 0
vn -1.8369701465288538e-16 -1 0
vn 0.258819043636322 -0.9659258127212524 0
vn 0.258819043636322 -0.9659258127212524 0
vn 0.5 -0.8660253882408142 0
vn 0.5 -0.8660253882408142 0
vn 0.7071067690849304 -0.7071067690849304 0
vn 0.7071067690849304 -0.7071067690849304 0
vn 0.8660253882408142 -0.5 0
vn 0.8660253882408142 -0.5 0
vn 0.9659258127212524 -0.258819043636322 0
vn 0.9659258127212524 -0.258819043636322 0
vn 1 -2.4492937051703357e-16 0
vn 1 -2.4492937051703357e-16 0
vn 1 -2.4492937051703357e-16 0
vn 1 -2.4492937051703357e-16 0
vn 0.9659258127212524 0.258819043636322 0
vn 0.9659258127212524 0.258819043636322 0
vn 0.8660253882408142 0.5 0
vn 0.8660253882408142 0.5 0
vn 0.7071067690849304 0.7071067690849304 0
vn 0.7071067690849304 0.7071067690849304 0
vn 0.5 0.8660253882408142 0
vn 0.5 0.8660253882408142 0
vn 0.258819043636322 0.9659258127212524 0
vn 0.258819043636322 0.9659258127212524 0
vn 6.123234262925839e-17 1 0
vn 6.123234262925839e-17 1 0
f 1//1 2//2 3//3
f 3//3 4//4 1//1
f 4//4 3//3 5//5
f 6//6 5//5 7//7
f 8//8 7//7 9//9
f 10//10 9//9 11//11
f 12//12 11//11 13//13
f 14//14 13//13 15//15
f 15//15 16//16 14//14
f 13//13 14//14 12//12
f 11//11 12//12 10//10
f 9//9 10//10 8//8
f 7//7 8//8 6//6
f 5//5 6//6 4//4
f 17//17 18//18 16//16
f 16//16 15//15 17//17
f 18//18 17//17 19//19
f 20//20 19//19 21//21
f 22//22 21//21 23//23
f 24//24 23//23 25//25
f 26//26 25//25 27//27
f 28//28 27//27 29//29
f 29//29 30//30 28//28
f 27//27 28//28 26//26
f 25//25 26//26 24//24
f 23//23 24//24 22//22
f 21//21 22//22 20//20
f 19//19 20//20 18//18
f 31//31 32//32 30//30
f 30//30 29//29 31//31
f 30//33 18//34 20//35
f 1//36 33//37 34//38
f 35//39 36//40 37//41
f 30//33 24//42 26//43
f 20//35 22//44 30//33
f 14//45 8//46 10//47
f 14//45 4//48 6//49
f 38//50 39//51 40//52
f 34//38 41//53 1//36
f 37//41 42//54 35//39
f 43//55 32//56 44//57
f 43//55 18//34 30//33
f 22//44 24//42 30//33
f 6//49 8//46 14//45
f 16//58 33//37 1//36
f 41//53 38//50 1//36
f 44//57 35//39 43//55
f 26//43 28//59 30//33
f 10//47 12//60 14//45
f 40//52 1//36 38//50
f 30//33 32//56 43//55
f 16//58 18//34 43//55
f 1//36 4//48 16//58
f 43//55 33//37 16//58
f 42//54 43//55 35//39
f 14//45 16//58 4//48
f 17//61 29//62 27//63
f 17//61 23//64 21//65
f 27//63 25//66 17//61
f 45//67 46//68 47//69
f 48//70 49//71 50//72
f 25//66 23//64 17//61
f 51//73 45//67 52//74
f 45//67 51//73 46//68
f 48//70 53//75 54//76
f 48//70 2//77 49//71
f 13//78 7//79 5//80
f 13//78 11//81 9//82
f 48//70 31//83 17//61
f 17//61 31//83 29//62
f 47//69 55//84 45//67
f 50//72 53//75 48//70
f 48//70 15//85 3//86
f 9//82 7//79 13//78
f 21//65 19//87 17//61
f 31//83 48//70 51//73
f 3//86 2//77 48//70
f 3//86 15//85 13//78
f 52//74 31//83 51//73
f 5//80 3//86 13//78
f 54//76 56//88 48//70
f 17//61 15//85 48//70
f 48//89 33//90 43//91
f 43//91 51//92 48//89
f 32//93 31//94 52//95
f 44//96 52//95 45//97
f 35//98 45//97 55//99
f 36//100 55//99 47//101
f 37//102 47//101 46//103
f 42//104 46//103 51//105
f 51//105 43//106 42//104
f 46//103 42//104 37//102
f 47//101 37//102 36//100
f 55//99 36//100 35//98
f 45//97 35//98 44//96
f 52//95 44//96 32//93
f 33//107 48//108 56//109
f 34//110 56//109 54//111
f 41//112 54//111 53//113
f 38//114 53//113 50//115
f 39//116 50//115 49//117
f 40//118 49//117 2//119
f 2//119 1//120 40//118
f 49//117 40//118 39//116
f 50//115 39//116 38//114
f 53//113 38//114 41//112
f 54//111 41//112 34//110
f 56//109 34//110 33//107
