o Cylinder.001
v 0 0 1
v 0.9629172682762146 0.269796758890152 1
v 0.8544194102287292 0.5195839405059814 1
v 0.6825531721115112 0.7308359742164612 1
v 0.4600650370121002 0.8878852128982544 1
v 0.20345601439476013 0.9790840744972229 1
v -0.06824241578578949 0.9976687431335449 1
v -0.334879606962204 0.9422609210014343 1
v -0.5766803026199341 0.8169698715209961 1
v -0.7757112979888916 0.6310879588127136 1
v -0.9172112941741943 0.39840108156204224 1
v -0.9906859397888184 0.13616664707660675 1
v -0.9906859397888184 -0.13616664707660675 1
v -0.9172112941741943 -0.39840108156204224 1
v -0.7757112979888916 -0.6310879588127136 1
v -0.5766803026199341 -0.8169698715209961 1
v -0.334879606962204 -0.9422609210014343 1
v -0.06824241578578949 -0.9976687431335449 1
v 0.20345601439476013 -0.9790840744972229 1
v 0.4600650370121002 -0.8878852128982544 1
v 0.6825531721115112 -0.7308359742164612 1
v 0.8544194102287292 -0.5195839405059814 1
v 0.9629172682762146 -0.269796758890152 1
v 1 0 1
v 1 -2.4492937051703357e-16 0
v 0.9629172682762146 0.269796758890152 0
v 0.8544194102287292 0.5195839405059814 0
v 0.6825531721115112 0.7308359742164612 0
v 0.4600650370121002 0.8878852128982544 0
v 0.20345601439476013 0.9790840744972229 0
v -0.06824241578578949 0.9976687431335449 0
v -0.334879606962204 0.9422609210014343 0
v -0.5766803026199341 0.8169698715209961 0
v -0.7757112979888916 0.6310879588127136 0
v -0.9172112941741943 0.39840108156204224 0
v -0.9906859397888184 0.13616664707660675 0
v -0.9906859397888184 -0.13616664707660675 0
v -0.9172112941741943 -0.39840108156204224 0
v -0.7757112979888916 -0.6310879588127136 0
v -0.5766803026199341 -0.8169698715209961 0
v -0.334879606962204 -0.9422609210014343 0
v -0.06824241578578949 -0.9976687431335449 0
v 0.20345601439476013 -0.9790840744972229 0
v 0.4600650370121002 -0.8878852128982544 0
v 0.6825531721115112 -0.7308359742164612 0
v 0.8544194102287292 -0.5195839405059814 0
v 0.9629172682762146 -0.269796758890152 0
v 0 0 0
vn 0 0 1
vn 0 0 1
vn 0 0 1
vn 0 0 1
vn 0 0 1
vn 0 0 1
vn 0 0 1
vn 0 0 1
vn 0 0 1
vn 0 0 1
vn 0 0 1
vn 0 0 1
vn 0 0 1
vn 0 0 1
vn 0 0 1
vn 0 0 1
vn 0 0 1
vn 0 0 1
vn 0 0 1
vn 0 0 1
vn 0 0 1
vn 0 0 1
vn 0 0 1
vn 0 0 1
vn 1 0 0
vn 1 0 0
vn 0.9629172682762146 0.269796758890152 0
vn 0.9629172682762146 0.269796758890152 0
vn 0.8544194102287292 0.5195839405059814 0
vn 0.8544194102287292 0.5195839405059814 0
vn 0.6825531721115112 0.7308359742164612 0
vn 0.6825531721115112 0.7308359742164612 0
vn 0.4600650370121002 0.8878852128982544 0
vn 0.4600650370121002 0.8878852128982544 0
vn 0.20345601439476013 0.9790840744972229 0
vn 0.20345601439476013 0.9790840744972229 0
vn -0.06824241578578949 0.9976687431335449 0
vn -0.06824241578578949 0.9976687431335449 0
vn -0.334879606962204 0.9422609210014343 0
vn -0.334879606962204 0.9422609210014343 0
vn -0.5766803026199341 0.8169698715209961 0
vn -0.5766803026199341 0.8169698715209961 0
vn -0.7757112979888916 0.6310879588127136 0
vn -0.7757112979888916 0.6310879588127136 0
vn -0.9172112941741943 0.39840108156204224 0
vn -0.9172112941741943 0.39840108156204224 0
vn -0.9906859397888184 0.13616664707660675 0
vn -0.9906859397888184 0.13616664707660675 0
vn -0.9906859397888184 -0.13616664707660675 0
vn -0.9906859397888184 -0.13616664707660675 0
vn -0.9172112941741943 -0.39840108156204224 0
vn -0.9172112941741943 -0.39840108156204224 0
vn -0.7757112979888916 -0.6310879588127136 0
vn -0.7757112979888916 -0.6310879588127136 0
vn -0.5766803026199341 -0.8169698715209961 0
vn -0.5766803026199341 -0.8169698715209961 0
vn -0.334879606962204 -0.9422609210014343 0
vn -0.334879606962204 -0.9422609210014343 0
vn -0.06824241578578949 -0.9976687431335449 0
vn -0.06824241578578949 -0.9976687431335449 0
vn 0.20345601439476013 -0.9790840744972229 0
vn 0.20345601439476013 -0.9790840744972229 0
vn 0.4600650370121002 -0.8878852128982544 0
vn 0.4600650370121002 -0.8878852128982544 0
vn 0.6825531721115112 -0.7308359742164612 0
vn 0.6825531721115112 -0.7308359742164612 0
vn 0.8544194102287292 -0.5195839405059814 0
vn 0.8544194102287292 -0.5195839405059814 0
vn 0.9629172682762146 -0.269796758890152 0
vn 0.9629172682762146 -0.269796758890152 0
vn 0 0 -1
vn 0 0 -1
vn 0 0 -1
vn 0 0 -1
vn 0 0 -1
vn 0 0 -1
vn 0 0 -1
vn 0 0 -1
vn 0 0 -1
vn 0 0 -1
vn 0 0 -1
vn 0 0 -1
vn 0 0 -1
vn 0 0 -1
vn 0 0 -1
vn 0 0 -1
vn 0 0 -1
vn 0 0 -1
vn 0 0 -1
vn 0 0 -1
vn 0 0 -1
vn 0 0 -1
vn 0 0 -1
vn 0 0 -1
f 1//1 2//2 3//3
f 3//3 4//4 1//1
f 4//4 5//5 1//1
f 5//5 6//6 1//1
f 6//6 7//7 1//1
f 7//7 8//8 1//1
f 8//8 9//9 1//1
f 9//9 10//10 1//1
f 10//10 11//11 1//1
f 11//11 12//12 1//1
f 12//12 13//13 1//1
f 13//13 14//14 1//1
f 14//14 15//15 1//1
f 15//15 16//16 1//1
f 16//16 17//17 1//1
f 17//17 18//18 1//1
f 18//18 19//19 1//1
f 19//19 20//20 1//1
f 20//20 21//21 1//1
f 21//21 22//22 1//1
f 22//22 23//23 1//1
f 23//23 24//24 1//1
f 24//24 2//2 1//1
f 24//25 25//26 26//27
f 2//28 26//27 27//29
f 3//30 27//29 28//31
f 4//32 28//31 29//33
f 5//34 29//33 30//35
f 6//36 30//35 31//37
f 7//38 31//37 32//39
f 8//40 32//39 33//41
f 9//42 33//41 34//43
f 10//44 34//43 35//45
f 11//46 35//45 36//47
f 12//48 36//47 37//49
f 13//50 37//49 38//51
f 14//52 38//51 39//53
f 15//54 39//53 40//55
f 16//56 40//55 41//57
f 17//58 41//57 42//59
f 18//60 42//59 43//61
f 19//62 43//61 44//63
f 20//64 44//63 45//65
f 21//66 45//65 46//67
f 22//68 46//67 47//69
f 23//70 47//69 25//26
f 25//26 24//25 23//70
f 47//69 23//70 22//68
f 46//67 22//68 21//66
f 45//65 21//66 20//64
f 44//63 20//64 19//62
f 43//61 19//62 18//60
f 42//59 18//60 17//58
f 41//57 17//58 16//56
f 40//55 16//56 15//54
f 39//53 15//54 14//52
f 38//51 14//52 13//50
f 37//49 13//50 12//48
f 36//47 12//48 11//46
f 35//45 11//46 10//44
f 34//43 10//44 9//42
f 33//41 9//42 8//40
f 32//39 8//40 7//38
f 31//37 7//38 6//36
f 30//35 6//36 5//34
f 29//33 5//34 4//32
f 28//31 4//32 3//30
f 27//29 3//30 2//28
f 26//27 2//28 24//25
f 48//71 47//72 46//73
f 46//73 45//74 48//71
f 45//74 44//75 48//71
f 44//75 43//76 48//71
f 43//76 42//77 48//71
f 42//77 41//78 48//71
f 41//78 40//79 48//71
f 40//79 39//80 48//71
f 39//80 38//81 48//71
f 38//81 37//82 48//71
f 37//82 36//83 48//71
f 36//83 35//84 48//71
f 35//84 34//85 48//71
f 34//85 33//86 48//71
f 33//86 32//87 48//71
f 32//87 31//88 48//71
f 31//88 30//89 48//71
f 30//89 29//90 48//71
f 29//90 28//91 48//71
f 28//91 27//92 48//71
f 27//92 26//93 48//71
f 26//93 25//94 48//71
f 25//94 47//72 48//71
o Box.001
v 0 1 1.2999999523162842
v 0 0 1.2999999523162842
v 10 0 1.2999999523162842
v 10 1 1.2999999523162842
v 0 0 1
v 10 0 1
v 0 1 1
v 10 1 1
vn 0 0 1
vn 0 0 1
vn 0 0 1
vn 0 0 1
vn 0 -1 0
vn 0 -1 0
vn 0 -1 0
vn 0 -1 0
vn -1 0 0
vn -1 0 0
vn -1 0 0
vn -1 0 0
vn 0 1 0
vn 0 1 0
vn 0 1 0
vn 0 1 0
vn 0 0 -1
vn 0 0 -1
vn 0 0 -1
vn 0 0 -1
vn 1 0 0
vn 1 0 0
vn 1 0 0
vn 1 0 0
f 49//95 50//96 51//97
f 51//97 52//98 49//95
f 53//99 54//100 51//101
f 51//101 50//102 53//99
f 55//103 53//104 50//105
f 50//105 49//106 55//103
f 56//107 55//108 49//109
f 49//109 52//110 56//107
f 55//111 56//112 54//113
f 54//113 53//114 55//111
f 51//115 54//116 56//117
f 56//117 52//118 51//115
o Solid_4
v 1 0 1.2999999523162842
v -8.881784197001252e-16 0 1.2999999523162842
v 1.7763568394002505e-15 -10 1.2999999523162842
v 1 -10 1.2999999523162842
v -8.881784197001252e-16 0 1
v 1.7763568394002505e-15 -10 1
v 1 0 1
v 1 -10 1
vn 0 0 1
vn 0 0 1
vn 0 0 1
vn 0 0 1
vn -1 -2.220446049250313e-16 0
vn -1 -2.220446049250313e-16 0
vn -1 -2.220446049250313e-16 0
vn -1 -2.220446049250313e-16 0
vn -2.220446049250313e-16 1 0
vn -2.220446049250313e-16 1 0
vn -2.220446049250313e-16 1 0
vn -2.220446049250313e-16 1 0
vn 1 2.220446049250313e-16 0
vn 1 2.220446049250313e-16 0
vn 1 2.220446049250313e-16 0
vn 1 2.220446049250313e-16 0
vn 0 0 -1
vn 0 0 -1
vn 0 0 -1
vn 0 0 -1
vn 2.220446049250313e-16 -1 0
vn 2.220446049250313e-16 -1 0
vn 2.220446049250313e-16 -1 0
vn 2.220446049250313e-16 -1 0
f 57//119 58//120 59//121
f 59//121 60//122 57//119
f 61//123 62//124 59//125
f 59//125 58//126 61//123
f 63//127 61//128 58//129
f 58//129 57//130 63//127
f 64//131 63//132 57//133
f 57//133 60//134 64//131
f 63//135 64//136 62//137
f 62//137 61//138 63//135
f 59//139 62//140 64//141
f 64//141 60//142 59//139
o Solid_5
v -1 0 1.2999999523162842
v 4.440892098500626e-16 0 1.2999999523162842
v -1.7763568394002505e-15 10 1.2999999523162842
v -1 10 1.2999999523162842
v -1 10 1
v -1 0 1
v -1.7763568394002505e-15 10 1
v 4.440892098500626e-16 0 1
vn 0 0 1
vn 0 0 1
vn 0 0 1
vn 0 0 1
vn -1 -2.220446049250313e-16 0
vn -1 -2.220446049250313e-16 0
vn -1 -2.220446049250313e-16 0
vn -1 -2.220446049250313e-16 0
vn -2.220446049250313e-16 1 0
vn -2.220446049250313e-16 1 0
vn -2.220446049250313e-16 1 0
vn -2.220446049250313e-16 1 0
vn 1 2.220446049250313e-16 0
vn 1 2.220446049250313e-16 0
vn 1 2.220446049250313e-16 0
vn 1 2.220446049250313e-16 0
vn 0 0 -1
vn 0 0 -1
vn 0 0 -1
vn 0 0 -1
vn 2.220446049250313e-16 -1 0
vn 2.220446049250313e-16 -1 0
vn 2.220446049250313e-16 -1 0
vn 2.220446049250313e-16 -1 0
f 65//143 66//144 67//145
f 67//145 68//146 65//143
f 69//147 70//148 65//149
f 65//149 68//150 69//147
f 71//151 69//152 68//153
f 68//153 67//154 71//151
f 72//155 71//156 67//157
f 67//157 66//158 72//155
f 70//159 69//160 71//161
f 71//161 72//162 70//159
f 65//163 70//164 72//165
f 72//165 66//166 65//163
o Solid_6
v -10 0 1.2999999523162842
v -10 -1 1.2999999523162842
v -1.3322676295501878e-15 -1 1.2999999523162842
v -4.440892098500626e-16 0 1.2999999523162842
v -10 -1 1
v -1.3322676295501878e-15 -1 1
v -10 0 1
v -4.440892098500626e-16 0 1
vn 0 0 1
vn 0 0 1
vn 0 0 1
vn 0 0 1
vn 0 -1 0
vn 0 -1 0
vn 0 -1 0
vn 0 -1 0
vn -1 0 0
vn -1 0 0
vn -1 0 0
vn -1 0 0
vn 0 1 0
vn 0 1 0
vn 0 1 0
vn 0 1 0
vn 0 0 -1
vn 0 0 -1
vn 0 0 -1
vn 0 0 -1
vn 1 0 0
vn 1 0 0
vn 1 0 0
vn 1 0 0
f 73//167 74//168 75//169
f 75//169 76//170 73//167
f 77//171 78//172 75//173
f 75//173 74//174 77//171
f 79//175 77//176 74//177
f 74//177 73//178 79//175
f 80//179 79//180 73//181
f 73//181 76//182 80//179
f 79//183 80//184 78//185
f 78//185 77//186 79//183
f 75//187 78//188 80//189
f 80//189 76//190 75//187
